<svg xmlns="http://www.w3.org/2000/svg" width="31" height="20" viewBox="0 0 31 20">
  <g id="Group_698" data-name="Group 698" transform="translate(-21 -100)">
    <g id="Group_634" data-name="Group 634" transform="translate(21.124 100.248)">
      <rect id="Rectangle_452" data-name="Rectangle 452" width="24" height="15" rx="5" transform="translate(-0.124 -0.248)" fill="#fff"/>
      <rect id="Rectangle_454" data-name="Rectangle 454" width="21" height="13" rx="3" transform="translate(1.876 1.752)" fill="#ed3239"/>
      <g id="Union_27" data-name="Union 27" transform="translate(17.876 4.752)" fill="#fff">
        <path d="M 9.899530410766602 14.5 L 3.099689960479736 14.5 L 3.099689960479736 8.823390007019043 L 3.099689960479736 8.323390007019043 L 2.599689960479736 8.323390007019043 L 0.9893358945846558 8.323390007019043 L 6.499636650085449 0.8430129289627075 L 12.01059913635254 8.323390007019043 L 10.3995304107666 8.323390007019043 L 9.899530410766602 8.323390007019043 L 9.899530410766602 8.823390007019043 L 9.899530410766602 14.5 Z" stroke="none"/>
        <path d="M 9.399530410766602 14 L 9.399530410766602 8.823390007019043 L 9.399530410766602 7.823390007019043 L 10.3995304107666 7.823390007019043 L 11.02119827270508 7.823390007019043 L 6.499660015106201 1.686020851135254 L 1.978664398193359 7.823390007019043 L 2.599689960479736 7.823390007019043 L 3.599689960479736 7.823390007019043 L 3.599689960479736 8.823390007019043 L 3.599689960479736 14 L 9.399530410766602 14 M 10.3995304107666 15 L 2.599689960479736 15 L 2.599689960479736 8.823390007019043 L -8.881784197001252e-16 8.823390007019043 L 6.49960994720459 -8.881784197001252e-16 L 13 8.823390007019043 L 10.3995304107666 8.823390007019043 L 10.3995304107666 15 Z" stroke="none" fill="#ed3239"/>
      </g>
    </g>
  </g>
</svg>
