<svg xmlns="http://www.w3.org/2000/svg" width="67" height="52" viewBox="0 0 67 52">
  <g id="Group_697" data-name="Group 697" transform="translate(-924 -99)">
    <rect id="Rectangle_473" data-name="Rectangle 473" width="67" height="52" rx="9" transform="translate(924 99)" fill="#e72f8b"/>
    <g id="Intersection_6" data-name="Intersection 6" transform="translate(942.182 111.192)" fill="#fff">
      <path d="M 19.34607315063477 22.28350067138672 L 1.046010255813599 22.28350067138672 C 1.686198472976685 20.55871200561523 2.823040962219238 19.01963424682617 4.29633617401123 17.89865112304688 C 6.004046440124512 16.59930038452148 8.044146537780762 15.91250038146973 10.19609642028809 15.91250038146973 C 12.34773635864258 15.91250038146973 14.38771629333496 16.59930038452148 16.0954761505127 17.89865112304688 C 17.56887817382813 19.01969718933105 18.70580673217773 20.55874633789063 19.34607315063477 22.28350067138672 Z M 10.8575963973999 14.91250038146973 C 6.938896179199219 14.91250038146973 3.750796318054199 11.67999076843262 3.750796318054199 7.706700325012207 C 3.750796318054199 3.732910394668579 6.938896179199219 0.5000003576278687 10.8575963973999 0.5000003576278687 C 14.77630615234375 0.5000003576278687 17.96440696716309 3.732910394668579 17.96440696716309 7.706700325012207 C 17.96440696716309 11.67999076843262 14.77630615234375 14.91250038146973 10.8575963973999 14.91250038146973 Z" stroke="none"/>
      <path d="M 18.59604263305664 21.78350067138672 C 17.96273422241211 20.42125701904297 16.99598693847656 19.21207237243652 15.79272651672363 18.29656982421875 C 14.17272663116455 17.06400108337402 12.23744678497314 16.41250038146973 10.19609642028809 16.41250038146973 C 8.154446601867676 16.41250038146973 6.219026565551758 17.06400108337402 4.599096298217773 18.29656028747559 C 3.395926952362061 19.21201705932617 2.429237127304077 20.42124366760254 1.795994997024536 21.78350067138672 L 18.59604263305664 21.78350067138672 M 10.8575963973999 14.41250038146973 C 14.50060653686523 14.41250038146973 17.46440696716309 11.40429019927979 17.46440696716309 7.706700325012207 C 17.46440696716309 4.008610248565674 14.50060653686523 1.000000357627869 10.8575963973999 1.000000357627869 C 7.214596271514893 1.000000357627869 4.250796318054199 4.008610248565674 4.250796318054199 7.706700325012207 C 4.250796318054199 11.40429019927979 7.214596271514893 14.41250038146973 10.8575963973999 14.41250038146973 M 20.03820610046387 22.78350067138672 L 0.3539063632488251 22.78350067138672 C 1.598956346511841 18.52412986755371 5.533896446228027 15.41250038146973 10.19609642028809 15.41250038146973 C 14.85755634307861 15.41250038146973 18.79296684265137 18.52412986755371 20.03820610046387 22.78350067138672 Z M 10.8575963973999 15.41250038146973 C 6.656396389007568 15.41250038146973 3.250796318054199 11.96280002593994 3.250796318054199 7.706700325012207 C 3.250796318054199 3.450600385665894 6.656396389007568 3.356933575560106e-07 10.8575963973999 3.356933575560106e-07 C 15.05879592895508 3.356933575560106e-07 18.46440696716309 3.450600385665894 18.46440696716309 7.706700325012207 C 18.46440696716309 11.96280002593994 15.05879592895508 15.41250038146973 10.8575963973999 15.41250038146973 Z" stroke="none" fill="#e72f8b"/>
    </g>
    <g id="Intersection_7" data-name="Intersection 7" transform="translate(959.182 118.192)" fill="#fff">
      <path d="M 13.32640075683594 15.28330039978027 L 1.065494894981384 15.28330039978027 C 1.513806223869324 14.19939136505127 2.253472805023193 13.23519515991211 3.193803787231445 12.52179050445557 C 4.352903842926025 11.64241027832031 5.736983776092529 11.17759990692139 7.196403980255127 11.17759990692139 C 8.655473709106445 11.17759990692139 10.03929424285889 11.64241027832031 11.1982536315918 12.52178001403809 C 12.13850116729736 13.23520183563232 12.87811088562012 14.19940662384033 13.32640075683594 15.28330039978027 Z M 7.655403614044189 10.17759990692139 C 5.01556396484375 10.17759990692139 2.8679039478302 8.006919860839844 2.8679039478302 5.338800430297852 C 2.8679039478302 2.670680284500122 5.01556396484375 0.5000001788139343 7.655403614044189 0.5000001788139343 C 10.29573345184326 0.5000001788139343 12.44380378723145 2.670680284500122 12.44380378723145 5.338800430297852 C 12.44380378723145 8.006919860839844 10.29573345184326 10.17759990692139 7.655403614044189 10.17759990692139 Z" stroke="none"/>
      <path d="M 12.5262279510498 14.78330039978027 C 12.11601638793945 14.06307029724121 11.56016731262207 13.42401885986328 10.89602375030518 12.92010021209717 C 9.824733734130859 12.10725021362305 8.54542350769043 11.67759990692139 7.196403980255127 11.67759990692139 C 5.847023963928223 11.67759990692139 4.56744384765625 12.10725975036621 3.496003866195679 12.92012977600098 C 2.831808805465698 13.42403602600098 2.275921106338501 14.06307601928711 1.865685105323792 14.78330039978027 L 12.5262279510498 14.78330039978027 M 7.655403614044189 9.677599906921387 C 10.02003383636475 9.677599906921387 11.94380378723145 7.731220245361328 11.94380378723145 5.338800430297852 C 11.94380378723145 2.946380138397217 10.02003383636475 1.000000238418579 7.655403614044189 1.000000238418579 C 5.291264057159424 1.000000238418579 3.3679039478302 2.946380138397217 3.3679039478302 5.338800430297852 C 3.3679039478302 7.731220245361328 5.291264057159424 9.677599906921387 7.655403614044189 9.677599906921387 M 14.03274345397949 15.78330039978027 L 0.3591438233852386 15.78330039978027 C 1.230533838272095 12.83131980895996 3.961873769760132 10.67759990692139 7.196403980255127 10.67759990692139 C 10.43019390106201 10.67759990692139 13.16137409210205 12.83131980895996 14.03274345397949 15.78330039978027 Z M 7.655403614044189 10.67759990692139 C 4.734903812408447 10.67759990692139 2.3679039478302 8.287199974060059 2.3679039478302 5.338800430297852 C 2.3679039478302 2.390400171279907 4.734903812408447 1.998901382194163e-07 7.655403614044189 1.998901382194163e-07 C 10.57680416107178 1.998901382194163e-07 12.94380378723145 2.390400171279907 12.94380378723145 5.338800430297852 C 12.94380378723145 8.287199974060059 10.57680416107178 10.67759990692139 7.655403614044189 10.67759990692139 Z" stroke="none" fill="#e72f8b"/>
    </g>
  </g>
</svg>
