<svg xmlns="http://www.w3.org/2000/svg" width="19.684" height="22.784" viewBox="0 0 19.684 22.784">
  <g id="Group_699" data-name="Group 699" transform="translate(-21.535 -176.193)">
    <g id="Intersection_4" data-name="Intersection 4" transform="translate(21.181 176.193)" fill="#fff">
      <path d="M 19.34607315063477 22.28350067138672 L 1.046010255813599 22.28350067138672 C 1.686198472976685 20.55871200561523 2.823040962219238 19.01963424682617 4.29633617401123 17.89865112304688 C 6.004046440124512 16.59930038452148 8.044146537780762 15.91250038146973 10.19609642028809 15.91250038146973 C 12.34773635864258 15.91250038146973 14.38771629333496 16.59930038452148 16.0954761505127 17.89865112304688 C 17.56887817382813 19.01969718933105 18.70580673217773 20.55874633789063 19.34607315063477 22.28350067138672 Z M 10.8575963973999 14.91250038146973 C 6.938896179199219 14.91250038146973 3.750796318054199 11.67999076843262 3.750796318054199 7.706700325012207 C 3.750796318054199 3.732910394668579 6.938896179199219 0.5000003576278687 10.8575963973999 0.5000003576278687 C 14.77630615234375 0.5000003576278687 17.96440696716309 3.732910394668579 17.96440696716309 7.706700325012207 C 17.96440696716309 11.67999076843262 14.77630615234375 14.91250038146973 10.8575963973999 14.91250038146973 Z" stroke="none"/>
      <path d="M 18.59604263305664 21.78350067138672 C 17.96273422241211 20.42125701904297 16.99598693847656 19.21207237243652 15.79272651672363 18.29656982421875 C 14.17272663116455 17.06400108337402 12.23744678497314 16.41250038146973 10.19609642028809 16.41250038146973 C 8.154446601867676 16.41250038146973 6.219026565551758 17.06400108337402 4.599096298217773 18.29656028747559 C 3.395926952362061 19.21201705932617 2.429237127304077 20.42124366760254 1.795994997024536 21.78350067138672 L 18.59604263305664 21.78350067138672 M 10.8575963973999 14.41250038146973 C 14.50060653686523 14.41250038146973 17.46440696716309 11.40429019927979 17.46440696716309 7.706700325012207 C 17.46440696716309 4.008610248565674 14.50060653686523 1.000000357627869 10.8575963973999 1.000000357627869 C 7.214596271514893 1.000000357627869 4.250796318054199 4.008610248565674 4.250796318054199 7.706700325012207 C 4.250796318054199 11.40429019927979 7.214596271514893 14.41250038146973 10.8575963973999 14.41250038146973 M 20.03820610046387 22.78350067138672 L 0.3539063632488251 22.78350067138672 C 1.598956346511841 18.52412986755371 5.533896446228027 15.41250038146973 10.19609642028809 15.41250038146973 C 14.85755634307861 15.41250038146973 18.79296684265137 18.52412986755371 20.03820610046387 22.78350067138672 Z M 10.8575963973999 15.41250038146973 C 6.656396389007568 15.41250038146973 3.250796318054199 11.96280002593994 3.250796318054199 7.706700325012207 C 3.250796318054199 3.450600385665894 6.656396389007568 3.356933575560106e-07 10.8575963973999 3.356933575560106e-07 C 15.05879592895508 3.356933575560106e-07 18.46440696716309 3.450600385665894 18.46440696716309 7.706700325012207 C 18.46440696716309 11.96280002593994 15.05879592895508 15.41250038146973 10.8575963973999 15.41250038146973 Z" stroke="none" fill="#ed3239"/>
    </g>
  </g>
</svg>
